<svg xmlns="http://www.w3.org/2000/svg" xmlns:xlink="http://www.w3.org/1999/xlink" width="48" height="48" id="key">
  <defs>
    <linearGradient xlink:href="#a" id="b" x1="949.87" x2="974.39" y1="518.014" y2="544.657" gradientTransform="translate(-1571.72 443.344)scale(1.53785)" gradientUnits="userSpaceOnUse"></linearGradient>
    <linearGradient id="a">
      <stop offset="0" stop-color="#24f7bc"></stop>
      <stop offset="1" stop-color="#24c4fc"></stop>
    </linearGradient>
  </defs>
  <g transform="translate(117.368 -1236.363)">
    <rect width="48" height="48" x="-117.368" y="1236.363" fill="url(#b)" rx="10.144" ry="10.144"></rect>
    <path fill="#fff" fill-rule="evenodd" d="M-84.793 1249.442a3.002 3.002 0 0 0-2.246 1.084 6.002 6.002 0 0 0-6.343 1.371 5.997 5.997 0 0 0-1.547 5.787l-10.291 10.291a.5.5 0 0 0-.145.409l.354 3.181a.5.5 0 0 0 .441.442l3.182.353a.5.5 0 0 0 .41-.142l1.35-1.35.787-.79a.5.5 0 0 0 .146-.36l-.014-.875.875.016a.5.5 0 0 0 .362-.147l1.367-1.367a.5.5 0 0 0 .146-.363l-.015-.875.875.016a.5.5 0 0 0 .363-.147l1.367-1.367a.5.5 0 0 0 .147-.361l-.016-.875.875.016a.5.5 0 0 0 .362-.147l1.314-1.312a5.998 5.998 0 0 0 5.789-1.547 5.996 5.996 0 0 0 1.65-5.348 2.998 2.998 0 0 0 1.498-2.312 3.002 3.002 0 0 0-3.042-3.28zm.016.998c.223 0 .45.03.672.104a1.995 1.995 0 0 1 1.36 2.086 1.99 1.99 0 0 1-.782 1.404 5.953 5.953 0 0 0-1.371-2.137 5.967 5.967 0 0 0-1.195-.918c.36-.335.827-.53 1.316-.539zm-4.363.695c.65 0 1.297.13 1.908.383a.5.5 0 0 0 .254.133c.493.238.963.544 1.373.953a4.969 4.969 0 0 1 1.148 1.815h-.015a1.993 1.993 0 0 1-1.475-.397c.028-.469-.13-.949-.486-1.304a1.71 1.71 0 0 0-2.404 0 1.71 1.71 0 0 0 0 2.404c.66.661 1.744.66 2.404 0 .044-.044.079-.095.117-.143a2.99 2.99 0 0 0 1.977.432c.044-.01.085-.022.129-.03a4.975 4.975 0 0 1-1.395 4.29 4.992 4.992 0 0 1-7.07 0 4.992 4.992 0 0 1 0-7.07 4.985 4.985 0 0 1 3.535-1.47zm1.506 2.088c.018 0 .036.01.054.012a.5.5 0 0 0 .036.26c.114.305.278.58.474.823-.024.034-.04.072-.07.103a.694.694 0 0 1-.99 0 .695.695 0 0 1 0-.992.698.698 0 0 1 .496-.21zm-6.916 5.499c.146.307.321.604.523.888l-10.176 10.176-.14-1.272 9.793-9.792zm1.168 1.66c.496.496 1.06.88 1.66 1.166l-.836.836-1.178-.02a.5.5 0 0 0-.51.508l.02 1.178-1.068 1.069-1.178-.018a.5.5 0 0 0-.508.507l.018 1.18-1.067 1.066-1.18-.018a.5.5 0 0 0-.507.508l.02 1.18-.64.639-1.18 1.18-2.546-.284 10.68-10.678z" color="#000" font-family="sans-serif" font-weight="400" overflow="visible" style="line-height:normal;text-indent:0;text-align:start;text-decoration-line:none;text-decoration-style:solid;text-decoration-color:#000;text-transform:none;block-progression:tb;isolation:auto;mix-blend-mode:normal"></path>
  </g>
</svg>
