<svg xmlns="http://www.w3.org/2000/svg" xmlns:xlink="http://www.w3.org/1999/xlink" viewBox="0 0 512 512" id="lock">
  <defs>
    <linearGradient id="a" x1="256" x2="256" y1="19.824" y2="487.88" gradientUnits="userSpaceOnUse">
      <stop offset="0" stop-color="#00efd1"></stop>
      <stop offset="1" stop-color="#00acea"></stop>
    </linearGradient>
    <linearGradient xlink:href="#a" id="b" x1="255.999" x2="255.999" y1="19.824" y2="487.88"></linearGradient>
  </defs>
  <g>
    <path fill="url(#a)" d="M386,206.465V155.083c0-34-13.74-65.812-38.957-89.575A129.427,129.427,0,0,0,257.75,30c-.625,0-1.068,0-1.695.014C184.231,30.038,126,86.134,126,155.081v51.384c-27,1.968-49,23.619-49,49.97V431.873C77,459.515,100.838,482,129.7,482H382.3c28.864,0,52.7-22.485,52.7-50.127V256.433C435,230.081,413,208.43,386,206.465ZM256,46h.117c29.893,0,58.2,10.626,79.954,31.146A106.161,106.161,0,0,1,370,155.083V206H342V155.086a81.823,81.823,0,0,0-26.019-59.741A86.061,86.061,0,0,0,256.837,72h-.655C208.686,72,170,109.345,170,155.079V206H142V155.081C142,94.939,192.972,46,256,46Zm70,160H186V155.079C186,118.167,217.508,88,256.182,88H257.2a69.685,69.685,0,0,1,47.861,19.04A65.8,65.8,0,0,1,326,155.081Zm93,225.873C419,450.691,402.34,466,382.3,466H129.7C109.66,466,93,450.691,93,431.873V256.435C93,237.614,109.66,222,129.7,222H382.3c20.042,0,36.7,15.614,36.7,34.433Z"></path>
    <path fill="url(#b)" d="M256,317c-19.694,0-35.715,15.4-35.715,34.331A33.313,33.313,0,0,0,238,380.965v33.627a18,18,0,0,0,36,0V380.966a33.314,33.314,0,0,0,17.716-29.635C291.716,332.4,275.692,317,256,317Zm2,97.592a2,2,0,0,1-4,0V385.605c1,.036,1.328.057,2,.057s1-.021,2-.057Zm-2-44.93c-10.872,0-19.717-8.224-19.717-18.331S245.125,333,256,333s19.718,8.224,19.718,18.331S266.869,369.662,256,369.662Z"></path>
  </g>
</svg>
